<?xml version="1.0" encoding="UTF-8"?>
<svg id="Layer_1" xmlns="http://www.w3.org/2000/svg" version="1.1" viewBox="0 0 1024 1024">
  <!-- Generator: Adobe Illustrator 30.3.0, SVG Export Plug-In . SVG Version: 2.1.3 Build 182)  -->
  <path d="M917.25,560.02c-1.23-17.66-3.88-34.51-8.44-51.66,8.54-28.71,9.81-57.92,6.99-88.05-7.32-67.18-42.71-128.21-98.16-166.77,0,0-20.61-13.42-20.61-13.42-12.54-11.9-18.04-29.96-30.64-42.32-48.19-59.17-124.04-95.32-200.71-90.2-19.26,1.16-38.81,3.98-56.93,10.73-10.6-3.94-34.03-7.79-45.25-9.47-96.2-13.19-194.53,40.58-238.31,126.21-60.83,38.28-107.61,99.65-117.11,172.5-7.48,27.32,6.36,98.76,8.41,99.89-7.34,27.39-9.45,58.61-6.36,86.85,7.1,78.43,54.13,152.76,123.47,190.54,38.65,73.13,116.14,125.13,199.06,131.6,0,0,37.1.04,37.1.04,20.55.02,40.07-9.21,49.61-6.69,100.55,25.53,216.29-16.9,268.17-108.44,0,0,3.97-7.24,3.97-7.24,88.92-39.85,133.52-139.84,125.75-234.09ZM823.97,392.5c4.32-33.26.05-65.31-9.17-97.83,93.52,80.62,90.18,239.4-6.9,315.81-10.08-33.96-26.26-64.08-49.02-91.42,35.01-32.31,60.29-78.9,65.1-126.55ZM586.88,520.28c7.65,7.17,22.56,23.11,28.06,31.94-19.46,3.99-44.52,3.8-64.13.63,3.71,16.85,4.6,43.59,2.64,60.7-19.4-11.06-33.29-25.56-46.31-42.89-10.57,16.83-29.68,31.39-45.9,42.41-2.84-20.47-2.2-40.72,2.62-60.57-21.02,5.11-44.06,2.96-65.14-.16,11.51-17.18,27.3-32.99,44.74-44.25-16.61-10.89-31.67-26.89-42.95-44.06,20.78-4.74,42.1-4.05,63.23-1.29-5.08-19.43-5.18-39.97-2.59-59.65,19.26,11.4,33.32,24.98,46.32,41.4,12.13-15.68,28.73-32.29,46.02-41.81,2.5,20.18,2.49,40.02-2.49,60.02,21.65-2.68,43.15-3.42,64.75,1.06-10.77,14.9-30.06,33.75-45.16,44.24l16.29,12.28ZM612.02,433.79c-45.89-3.48-19.02,5.51-31.17-43.37,32.11-14.56,70.21-22.94,105.94-19.04,34.3,2.71,68.31,17.08,97.79,34.33-6.78,29.03-19.69,55.8-39.97,77.53l-10.42,11.17c-31.25-28.77-80.27-56.05-122.17-60.61ZM641.68,340.15c-49.78,4.73-99.04,26.21-133.43,63.31-10.62-11.31-22.19-21.24-35.59-29.91,21.03-52.13,63.04-95.86,114.57-118.55,36.99-11.08,27.16-23.25,46.3,14.67,9.9,22.33,16.4,45.37,19.32,69.57l-11.15.91ZM476.8,299.64c-26.8,32.42-46.81,73.03-47.14,115.77.46,20.3,5.12,16.77-15.96,17.23-5.41.25-24.32,4.14-29.86,5.56-10.26-21.47-17.47-43.98-19.81-67.73-5.25-44.63,4.12-90.63,26.34-129.95,34.64,9.27,66.31,27.39,92.65,51.69,0,0-6.2,7.44-6.2,7.44ZM381.75,489.41c29.06,29.91,17.24,8.57-11.9,51.47-62.7-23.87-116.61-76.37-131.31-143.29,28.45-15.94,60.16-25.64,92.89-27.08,4.32,42.97,22.77,85.97,50.32,118.9ZM285.47,533.23c41.56,31.49,91.85,52.15,144.4,49.09-.72,13.5-.28,32.12,2.87,45.2-59.37,32.25-133.49,32.17-190.94-4.65,6.65-31.11,24.03-64.73,43.67-89.64ZM405.59,673.4c37.92-11.35,74.71-30.1,102.13-59.34,7.75,8.67,26.04,23.21,35.89,29.47-23.56,64.14-77.27,113.7-142.19,133.92-16.41-29.17-32.93-63.33-35.96-97.25,14-.98,26.88-3.2,40.12-6.8ZM539.47,722.09c29.83-40.16,49.9-87.95,44.01-139.44,11.16.54,34.99-2.09,46.11-4.09,31.81,65.3,27.33,142.52-5.13,206.72-35.17-9.48-67.26-26.35-94.08-51.33,0,0,9.09-11.87,9.09-11.87ZM634.94,528.3c-31.1-33.39-21.74-8.14,8.26-51.94,66.45,24.68,120.71,82.15,136.86,151.52,0,0-9.16,4.77-9.16,4.77-26.15,14.02-58.39,21.16-87.76,23.45-2.91-45.93-18.78-92.63-48.19-127.79ZM563.17,142.43c127.18-8.76,236.07,107.4,229.5,232.63-31.09-18.69-72.84-33.49-108.63-35.25-4.33-81.13-58.02-157.33-120.87-197.38ZM383.28,150.14c76.25-21.24,161.89,6.63,213.03,66.56-32.52,11.73-65,28.62-90.15,52.4-57.33-54.5-144.42-83.12-221.77-59.74,27.38-28.42,61.22-48.62,98.89-59.22ZM241.36,266.07c34.24-19.84,73.57-29.94,113.37-29.23-14.73,31.73-22.8,66.67-23.56,101.88-.03.6-1.84,1.52-2.43,1.56-76.23,1.49-151.45,48.6-187.75,115.55-3.58-80.03,33.13-148.26,100.37-189.76ZM208.66,613.4c-8.57,36.94-5.24,74.82,5.12,111.11-86.39-75.41-91.63-224.24-3.98-300.68,1.34-.96,2.21-2.32,2.92.51,11.84,31.42,24.01,53.78,45.74,79.31,0,0,4.8,5.64,4.8,5.64-27.04,31.48-45.76,63.74-54.59,104.11ZM453.76,882c-118.94,1.22-217.23-110.17-214.02-226.85,28.62,15.99,63.16,24.31,95.62,26.58,8.1,80.09,57.34,164.54,131.62,199.34l-13.21.93ZM622.67,876.17c-74.32,16.33-152.54-15.45-201.41-72.23,32.84-11.65,60.43-25.36,87.01-47.9,0,0,7.8,7.12,7.8,7.12,57.33,50.63,139.41,71.58,213.77,52.54-28,30.67-66.31,52.18-107.17,60.48ZM883.49,598.48c-6.77,111.8-113.64,202.32-225.1,190.69,16.08-32.81,23.61-68.32,25.42-104.55,80.85.87,160.74-42.66,200.06-114.11.3,6.94.27,21.12-.37,27.98Z"/>
</svg>